<?xml version="1.0" encoding="utf-8"?>
<!-- Generator: Adobe Illustrator 22.0.0, SVG Export Plug-In . SVG Version: 6.00 Build 0)  -->
<svg version="1.1" id="Camada_1" xmlns="http://www.w3.org/2000/svg" xmlns:xlink="http://www.w3.org/1999/xlink" x="0px" y="0px"
	 viewBox="0 0 21.7 30.1" style="enable-background:new 0 0 21.7 30.1;" xml:space="preserve">
<style type="text/css">
	.st0{fill:#0280F9;}
	.st1{fill:#1C1C1B;}
</style>
<g>
	<path class="st0" d="M10,25.2H7.1l-1.7-1.7v-2.2h0.8v-1.6l-0.6-0.6V18l0.5-0.5l-0.5-0.5v-3.2l1.2-0.9l-0.2-0.2l-1.1,0.8l-0.8-1.1
		l1.9-1.5L6.2,9.3h-1L4.7,6h3.6l1,1l1.6,0l2-2.2L14,5.5l-1,3.2l0.1,0.4l0.9-0.7h4.1l0.9,1.4l-0.9,0.9v3.8h-2.9l-2.6-1.2v1.1
		l-1.4,0.8v1.4l-0.5,0.5l0.7,1.2v5.9L10,25.2z M7.4,24.3h2.3l1-0.6v-5.2l-1-1.6l0.7-0.7v-1.5l1.4-0.8v-1.9l3.7,1.7h1.8v-3.3l0.7-0.7
		l-0.3-0.4h-3.3l-1.7,1.2l-0.6-1.9l0.7-2.4L11.3,8L9,8l-1-1H5.7L6,8.4h0.9l0.8,2.9L7,11.7l1,1.4l-1.5,1.1v2.4l0.9,0.9l-0.9,0.9v0.4
		l0.6,0.6v2.8H6.3v0.9L7.4,24.3z"/>
	<path class="st0" d="M10.9,25.9C4.9,25.9,0,21,0,15c0-6,4.9-10.9,10.9-10.9c6,0,10.9,4.9,10.9,10.9C21.7,21,16.9,25.9,10.9,25.9
		 M10.9,5.4c-5.3,0-9.6,4.3-9.6,9.6c0,5.3,4.3,9.6,9.6,9.6c5.3,0,9.6-4.3,9.6-9.6C20.5,9.7,16.2,5.4,10.9,5.4"/>
	<path class="st1" d="M8.1,3.5c0.3-0.1,0.5-0.1,0.8-0.2L7.8,0C7.5,0,7.5,0,7.2,0.1C7,0.2,6.9,0.2,6.7,0.3l0.6,3.5
		C7.5,3.7,7.8,3.6,8.1,3.5"/>
	<path class="st1" d="M13.7,26.5c-0.3,0.1-0.5,0.1-0.8,0.2l1.1,3.4c0.3,0,0.3,0,0.5-0.1c0.3-0.1,0.3-0.1,0.5-0.1l-0.6-3.5
		C14.2,26.4,13.9,26.5,13.7,26.5"/>
</g>
</svg>
